ffmpeg started on 2016-12-03 at 03:59:21
Report written to "Output/x264/results/ffmpeg/old_town_cross_2160p50placebo3000k.log"
Command line:
Tools/ffmpeg/ffmpeg -benchmark -y -i Input/y4m/old_town_cross_2160p50.y4m -c:v libx264 -preset placebo -b:v 3000k -an Output/x264/encoded/old_town_cross_2160p50placebo3000k.mkv
ffmpeg version N-82227-gdb23fde Copyright (c) 2000-2016 the FFmpeg developers
  built with gcc 5.4.0 (Ubuntu 5.4.0-6ubuntu1~16.04.2) 20160609
  configuration: --prefix=/home/jaroslav/ffmpeg_build --pkg-config-flags=--static --extra-cflags=-I/home/jaroslav/ffmpeg_build/include --extra-ldflags=-L/home/jaroslav/ffmpeg_build/lib --bindir=/home/jaroslav/bin --enable-gpl --enable-libass --enable-libfdk-aac --enable-libfreetype --enable-libmp3lame --enable-libopus --enable-libtheora --enable-libvorbis --enable-libvpx --enable-libx264 --enable-libx265 --enable-nvenc --enable-libmfx --enable-libxvid --enable-libgsm --enable-libopencore-amrnb --enable-version3 --enable-nonfree
  libavutil      55. 35.100 / 55. 35.100
  libavcodec     57. 66.101 / 57. 66.101
  libavformat    57. 57.100 / 57. 57.100
  libavdevice    57.  2.100 / 57.  2.100
  libavfilter     6. 66.100 /  6. 66.100
  libswscale      4.  3.100 /  4.  3.100
  libswresample   2.  4.100 /  2.  4.100
  libpostproc    54.  2.100 / 54.  2.100
Input #0, yuv4mpegpipe, from 'Input/y4m/old_town_cross_2160p50.y4m':
  Duration: 00:00:10.00, start: 0.000000, bitrate: 4976642 kb/s
    Stream #0:0: Video: rawvideo (I420 / 0x30323449), yuv420p(progressive), 3840x2160, SAR 1:1 DAR 16:9, 50 fps, 50 tbr, 50 tbn, 50 tbc
[libx264 @ 0x3bad120] using SAR=1/1
[libx264 @ 0x3bad120] DPB size (16 frames, 518400 mbs) > level limit (5 frames, 184320 mbs)
[libx264 @ 0x3bad120] using cpu capabilities: MMX2 SSE2Fast SSSE3 SSE4.2 AVX FMA3 AVX2 LZCNT BMI2
[libx264 @ 0x3bad120] profile High, level 5.2
[libx264 @ 0x3bad120] 264 - core 148 - H.264/MPEG-4 AVC codec - Copyleft 2003-2016 - http://www.videolan.org/x264.html - options: cabac=1 ref=16 deblock=1:0:0 analyse=0x3:0x133 me=tesa subme=11 psy=1 psy_rd=1.00:0.00 mixed_ref=1 me_range=24 chroma_me=1 trellis=2 8x8dct=1 cqm=0 deadzone=21,11 fast_pskip=0 chroma_qp_offset=-2 threads=6 lookahead_threads=1 sliced_threads=0 nr=0 decimate=1 interlaced=0 bluray_compat=0 constrained_intra=0 bframes=16 b_pyramid=2 b_adapt=2 b_bias=0 direct=3 weightb=1 open_gop=0 weightp=2 keyint=250 keyint_min=25 scenecut=40 intra_refresh=0 rc_lookahead=60 rc=abr mbtree=1 bitrate=3000 ratetol=1.0 qcomp=0.60 qpmin=0 qpmax=69 qpstep=4 ip_ratio=1.40 aq=1:1.00
Output #0, matroska, to 'Output/x264/encoded/old_town_cross_2160p50placebo3000k.mkv':
  Metadata:
    encoder         : Lavf57.57.100
    Stream #0:0: Video: h264 (libx264) (H264 / 0x34363248), yuv420p, 3840x2160 [SAR 1:1 DAR 16:9], q=-1--1, 3000 kb/s, 50 fps, 1k tbn, 50 tbc
    Metadata:
      encoder         : Lavc57.66.101 libx264
    Side data:
      cpb: bitrate max/min/avg: 0/0/3000000 buffer size: 0 vbv_delay: -1
Stream mapping:
  Stream #0:0 -> #0:0 (rawvideo (native) -> h264 (libx264))
Press [q] to stop, [?] for help
frame=   59 fps=0.0 q=0.0 size=       0kB time=00:00:00.00 bitrate=N/A speed=   0x    frame=   84 fps=3.3 q=0.0 size=       0kB time=00:00:00.00 bitrate=N/A speed=   0x    frame=   89 fps=3.4 q=44.0 size=       1kB time=-00:00:00.01 bitrate=N/A speed=N/A    frame=   90 fps=3.3 q=44.0 size=       1kB time=00:00:00.00 bitrate=5888.0kbits/s speed=3.61e-05x    frame=   91 fps=3.1 q=44.0 size=       1kB time=00:00:00.02 bitrate= 280.4kbits/s speed=0.000717x    frame=   92 fps=3.1 q=44.0 size=       1kB time=00:00:00.04 bitrate= 143.6kbits/s speed=0.00137x    frame=   95 fps=3.1 q=44.0 size=       1kB time=00:00:00.10 bitrate=  58.3kbits/s speed=0.00327x    frame=   96 fps=3.0 q=44.0 size=       1kB time=00:00:00.12 bitrate=  48.7kbits/s speed=0.00377x    frame=   97 fps=2.9 q=44.0 size=       1kB time=00:00:00.14 bitrate=  41.8kbits/s speed=0.00423x    frame=   98 fps=2.9 q=51.0 size=       1kB time=00:00:00.16 bitrate=  36.6kbits/s speed=0.00472x    frame=   99 fps=2.5 q=47.0 size=       1kB time=00:00:00.18 bitrate=  32.5kbits/s speed=0.00459x    frame=  104 fps=2.5 q=48.0 size=       1kB time=00:00:00.28 bitrate=  21.0kbits/s speed=0.00676x    frame=  105 fps=2.4 q=49.0 size=       1kB time=00:00:00.30 bitrate=  19.6kbits/s speed=0.00699x    frame=  106 fps=2.4 q=49.0 size=       1kB time=00:00:00.32 bitrate=  18.3kbits/s speed=0.0072x    frame=  109 fps=2.2 q=49.0 size=       1kB time=00:00:00.38 bitrate=  15.5kbits/s speed=0.00776x    frame=  114 fps=2.1 q=50.0 size=       1kB time=00:00:00.48 bitrate=  12.2kbits/s speed=0.00905x    frame=  115 fps=2.1 q=49.0 size=       1kB time=00:00:00.50 bitrate=  11.8kbits/s speed=0.00932x    frame=  116 fps=2.1 q=49.0 size=       1kB time=00:00:00.52 bitrate=  11.3kbits/s speed=0.0096x    frame=  120 fps=2.1 q=48.0 size=       1kB time=00:00:00.60 bitrate=   9.8kbits/s speed=0.0104x    frame=  121 fps=2.1 q=48.0 size=       1kB time=00:00:00.62 bitrate=   9.5kbits/s speed=0.0106x    frame=  123 fps=2.0 q=47.0 size=       1kB time=00:00:00.66 bitrate=   8.9kbits/s speed=0.0107x    frame=  128 fps=1.9 q=47.0 size=       1kB time=00:00:00.76 bitrate=   7.7kbits/s speed=0.0112x    frame=  129 fps=1.9 q=47.0 size=       1kB time=00:00:00.78 bitrate=   7.5kbits/s speed=0.0113x    frame=  130 fps=1.9 q=47.0 size=       1kB time=00:00:00.80 bitrate=   7.4kbits/s speed=0.0115x    frame=  134 fps=1.8 q=46.0 size=       1kB time=00:00:00.88 bitrate=   6.7kbits/s speed=0.0118x    frame=  135 fps=1.8 q=46.0 size=       1kB time=00:00:00.90 bitrate=   6.5kbits/s speed=0.0119x    frame=  136 fps=1.8 q=46.0 size=       1kB time=00:00:00.92 bitrate=   6.4kbits/s speed=0.012x    frame=  139 fps=1.8 q=46.0 size=       1kB time=00:00:00.98 bitrate=   6.0kbits/s speed=0.0127x    frame=  140 fps=1.7 q=46.0 size=       1kB time=00:00:01.00 bitrate=   5.9kbits/s speed=0.0119x    frame=  141 fps=1.7 q=46.0 size=       1kB time=00:00:01.02 bitrate=   5.8kbits/s speed=0.0121x    frame=  142 fps=1.7 q=46.0 size=       1kB time=00:00:01.04 bitrate=   5.7kbits/s speed=0.0121x    frame=  146 fps=1.6 q=46.0 size=       1kB time=00:00:01.12 bitrate=   5.3kbits/s speed=0.0123x    frame=  147 fps=1.6 q=46.0 size=       1kB time=00:00:01.14 bitrate=   5.2kbits/s speed=0.0123x    frame=  148 fps=1.6 q=46.0 size=       1kB time=00:00:01.16 bitrate=   5.1kbits/s speed=0.0124x    frame=  149 fps=1.6 q=46.0 size=       1kB time=00:00:01.18 bitrate=   5.0kbits/s speed=0.0126x    frame=  150 fps=1.5 q=45.0 size=       1kB time=00:00:01.20 bitrate=   4.9kbits/s speed=0.012x    frame=  151 fps=1.5 q=45.0 size=       1kB time=00:00:01.22 bitrate=   4.8kbits/s speed=0.0121x    frame=  152 fps=1.5 q=45.0 size=       1kB time=00:00:01.24 bitrate=   4.7kbits/s speed=0.0121x    frame=  156 fps=1.4 q=45.0 size=       1kB time=00:00:01.32 bitrate=   4.5kbits/s speed=0.0122x    frame=  158 fps=1.4 q=45.0 size=       1kB time=00:00:01.36 bitrate=   4.3kbits/s speed=0.0124x    frame=  160 fps=1.4 q=45.0 size=       1kB time=00:00:01.40 bitrate=   4.2kbits/s speed=0.012x    frame=  161 fps=1.4 q=45.0 size=       1kB time=00:00:01.42 bitrate=   4.1kbits/s speed=0.012x    frame=  162 fps=1.4 q=45.0 size=       1kB time=00:00:01.44 bitrate=   4.1kbits/s speed=0.0121x    frame=  166 fps=1.3 q=45.0 size=       1kB time=00:00:01.52 bitrate=   3.9kbits/s speed=0.0121x    frame=  167 fps=1.3 q=45.0 size=       1kB time=00:00:01.54 bitrate=   3.8kbits/s speed=0.0121x    frame=  168 fps=1.3 q=45.0 size=       1kB time=00:00:01.56 bitrate=   3.8kbits/s speed=0.0122x    frame=  170 fps=1.2 q=45.0 size=       1kB time=00:00:01.60 bitrate=   3.7kbits/s speed=0.0117x    frame=  171 fps=1.2 q=45.0 size=       1kB time=00:00:01.62 bitrate=   3.6kbits/s speed=0.0118x    frame=  172 fps=1.2 q=45.0 size=       1kB time=00:00:01.64 bitrate=   3.6kbits/s speed=0.0118x    frame=  176 fps=1.2 q=44.0 size=       1kB time=00:00:01.72 bitrate=   3.4kbits/s speed=0.0118x    frame=  177 fps=1.2 q=45.0 size=       1kB time=00:00:01.74 bitrate=   3.4kbits/s speed=0.0118x    frame=  178 fps=1.2 q=45.0 size=       1kB time=00:00:01.76 bitrate=   3.3kbits/s speed=0.0119x    frame=  180 fps=1.2 q=44.0 size=       1kB time=00:00:01.80 bitrate=   3.3kbits/s speed=0.0121x    frame=  181 fps=1.1 q=44.0 size=       1kB time=00:00:01.82 bitrate=   3.2kbits/s speed=0.0115x    frame=  182 fps=1.1 q=44.0 size=       1kB time=00:00:01.84 bitrate=   3.2kbits/s speed=0.0116x    frame=  183 fps=1.1 q=44.0 size=       1kB time=00:00:01.86 bitrate=   3.2kbits/s speed=0.0116x    frame=  187 fps=1.1 q=44.0 size=       1kB time=00:00:01.94 bitrate=   3.0kbits/s speed=0.0116x    frame=  188 fps=1.1 q=44.0 size=       1kB time=00:00:01.96 bitrate=   3.0kbits/s speed=0.0116x    frame=  190 fps=1.1 q=44.0 size=       1kB time=00:00:02.00 bitrate=   2.9kbits/s speed=0.0115x    frame=  192 fps=1.1 q=44.0 size=       1kB time=00:00:02.04 bitrate=   2.9kbits/s speed=0.0114x    frame=  193 fps=1.1 q=44.0 size=       1kB time=00:00:02.06 bitrate=   2.9kbits/s speed=0.0115x    frame=  194 fps=1.1 q=44.0 size=       1kB time=00:00:02.08 bitrate=   2.8kbits/s speed=0.0115x    frame=  196 fps=1.1 q=44.0 size=       1kB time=00:00:02.12 bitrate=   2.8kbits/s speed=0.0117x    frame=  198 fps=1.1 q=44.0 size=       1kB time=00:00:02.16 bitrate=   2.7kbits/s speed=0.0115x    frame=  199 fps=1.1 q=44.0 size=       1kB time=00:00:02.18 bitrate=   2.7kbits/s speed=0.0116x    frame=  200 fps=1.0 q=44.0 size=       1kB time=00:00:02.20 bitrate=   2.7kbits/s speed=0.0115x    frame=  201 fps=1.0 q=44.0 size=       1kB time=00:00:02.22 bitrate=   2.7kbits/s speed=0.0116x    frame=  202 fps=1.0 q=44.0 size=       1kB time=00:00:02.24 bitrate=   2.6kbits/s speed=0.0116x    frame=  203 fps=1.0 q=44.0 size=       1kB time=00:00:02.26 bitrate=   2.6kbits/s speed=0.0113x    frame=  204 fps=1.0 q=44.0 size=       1kB time=00:00:02.28 bitrate=   2.6kbits/s speed=0.0113x    frame=  205 fps=1.0 q=44.0 size=       1kB time=00:00:02.30 bitrate=   2.6kbits/s speed=0.0114x    frame=  208 fps=1.0 q=44.0 size=       1kB time=00:00:02.36 bitrate=   2.5kbits/s speed=0.0116x    frame=  209 fps=1.0 q=44.0 size=       1kB time=00:00:02.38 bitrate=   2.5kbits/s speed=0.0114x    frame=  210 fps=1.0 q=44.0 size=       1kB time=00:00:02.40 bitrate=   2.5kbits/s speed=0.0111x    frame=  211 fps=1.0 q=44.0 size=       1kB time=00:00:02.42 bitrate=   2.4kbits/s speed=0.0112x    frame=  212 fps=1.0 q=44.0 size=       1kB time=00:00:02.44 bitrate=   2.4kbits/s speed=0.0112x    frame=  216 fps=1.0 q=44.0 size=       1kB time=00:00:02.52 bitrate=   2.3kbits/s speed=0.0112x    frame=  217 fps=1.0 q=44.0 size=       1kB time=00:00:02.54 bitrate=   2.3kbits/s speed=0.0112x    frame=  218 fps=1.0 q=44.0 size=       1kB time=00:00:02.56 bitrate=   2.3kbits/s speed=0.0112x    frame=  220 fps=1.0 q=44.0 size=       1kB time=00:00:02.60 bitrate=   2.3kbits/s speed=0.0113x    frame=  221 fps=0.9 q=44.0 size=       1kB time=00:00:02.62 bitrate=   2.2kbits/s speed=0.011x    frame=  222 fps=0.9 q=44.0 size=       1kB time=00:00:02.64 bitrate=   2.2kbits/s speed=0.011x    frame=  223 fps=0.9 q=44.0 size=       1kB time=00:00:02.66 bitrate=   2.2kbits/s speed=0.0111x    frame=  227 fps=0.9 q=44.0 size=       1kB time=00:00:02.74 bitrate=   2.1kbits/s speed=0.0111x    frame=  228 fps=0.9 q=44.0 size=       1kB time=00:00:02.76 bitrate=   2.1kbits/s speed=0.011x    frame=  229 fps=0.9 q=44.0 size=       1kB time=00:00:02.78 bitrate=   2.1kbits/s speed=0.0111x    frame=  231 fps=0.9 q=44.0 size=       1kB time=00:00:02.82 bitrate=   2.1kbits/s speed=0.0112x    frame=  232 fps=0.9 q=44.0 size=       1kB time=00:00:02.84 bitrate=   2.1kbits/s speed=0.0109x    frame=  233 fps=0.9 q=44.0 size=       1kB time=00:00:02.86 bitrate=   2.1kbits/s speed=0.0109x    frame=  234 fps=0.9 q=43.0 size=       1kB time=00:00:02.88 bitrate=   2.0kbits/s speed=0.011x    frame=  235 fps=0.9 q=43.0 size=       1kB time=00:00:02.90 bitrate=   2.0kbits/s speed=0.011x    frame=  238 fps=0.9 q=43.0 size=       1kB time=00:00:02.96 bitrate=   2.0kbits/s speed=0.011x    frame=  239 fps=0.9 q=43.0 size=       1kB time=00:00:02.98 bitrate=   2.0kbits/s speed=0.011x    frame=  240 fps=0.9 q=43.0 size=       1kB time=00:00:03.00 bitrate=   2.0kbits/s speed=0.0108x    frame=  241 fps=0.9 q=43.0 size=       1kB time=00:00:03.02 bitrate=   1.9kbits/s speed=0.0108x    frame=  242 fps=0.9 q=43.0 size=       1kB time=00:00:03.04 bitrate=   1.9kbits/s speed=0.0108x    frame=  246 fps=0.9 q=43.0 size=       1kB time=00:00:03.12 bitrate=   1.9kbits/s speed=0.0109x    frame=  247 fps=0.9 q=43.0 size=       1kB time=00:00:03.14 bitrate=   1.9kbits/s speed=0.0108x    frame=  248 fps=0.8 q=43.0 size=       1kB time=00:00:03.16 bitrate=   1.9kbits/s speed=0.0108x    frame=  251 fps=0.8 q=43.0 size=       1kB time=00:00:03.22 bitrate=   1.8kbits/s speed=0.0107x    frame=  252 fps=0.8 q=43.0 size=       1kB time=00:00:03.24 bitrate=   1.8kbits/s speed=0.0108x    frame=  253 fps=0.8 q=43.0 size=       1kB time=00:00:03.26 bitrate=   1.8kbits/s speed=0.0108x    frame=  254 fps=0.8 q=43.0 size=       1kB time=00:00:03.28 bitrate=   1.8kbits/s speed=0.0108x    frame=  257 fps=0.8 q=43.0 size=       1kB time=00:00:03.34 bitrate=   1.8kbits/s speed=0.0108x    frame=  258 fps=0.8 q=43.0 size=       1kB time=00:00:03.36 bitrate=   1.8kbits/s speed=0.0108x    frame=  259 fps=0.8 q=43.0 size=       1kB time=00:00:03.38 bitrate=   1.7kbits/s speed=0.0107x    frame=  260 fps=0.8 q=43.0 size=       1kB time=00:00:03.40 bitrate=   1.7kbits/s speed=0.0107x    frame=  261 fps=0.8 q=43.0 size=       1kB time=00:00:03.42 bitrate=   1.7kbits/s speed=0.0107x    frame=  265 fps=0.8 q=43.0 size=       1kB time=00:00:03.50 bitrate=   1.7kbits/s speed=0.0107x    frame=  266 fps=0.8 q=43.0 size=       1kB time=00:00:03.52 bitrate=   1.7kbits/s speed=0.0106x    frame=  267 fps=0.8 q=43.0 size=       1kB time=00:00:03.54 bitrate=   1.7kbits/s speed=0.0106x    frame=  270 fps=0.8 q=43.0 size=       1kB time=00:00:03.60 bitrate=   1.6kbits/s speed=0.0106x    frame=  271 fps=0.8 q=43.0 size=       1kB time=00:00:03.62 bitrate=   1.6kbits/s speed=0.0106x    frame=  272 fps=0.8 q=43.0 size=       1kB time=00:00:03.64 bitrate=   1.6kbits/s speed=0.0106x    frame=  274 fps=0.8 q=43.0 size=       1kB time=00:00:03.68 bitrate=   1.6kbits/s speed=0.0107x    frame=  276 fps=0.8 q=43.0 size=       1kB time=00:00:03.72 bitrate=   1.6kbits/s speed=0.0105x    frame=  277 fps=0.8 q=43.0 size=       1kB time=00:00:03.74 bitrate=   1.6kbits/s speed=0.0105x    frame=  278 fps=0.8 q=43.0 size=       1kB time=00:00:03.76 bitrate=   1.6kbits/s speed=0.0105x    frame=  280 fps=0.8 q=43.0 size=       1kB time=00:00:03.80 bitrate=   1.5kbits/s speed=0.0106x    frame=  282 fps=0.8 q=43.0 size=       1kB time=00:00:03.84 bitrate=   1.5kbits/s speed=0.0105x    frame=  284 fps=0.8 q=43.0 size=       1kB time=00:00:03.88 bitrate=   1.5kbits/s speed=0.0104x    frame=  285 fps=0.8 q=43.0 size=       1kB time=00:00:03.90 bitrate=   1.5kbits/s speed=0.0105x    frame=  286 fps=0.8 q=43.0 size=       1kB time=00:00:03.92 bitrate=   1.5kbits/s speed=0.0105x    frame=  290 fps=0.8 q=43.0 size=       1kB time=00:00:04.00 bitrate=   1.5kbits/s speed=0.0104x    frame=  291 fps=0.8 q=43.0 size=       1kB time=00:00:04.02 bitrate=   1.5kbits/s speed=0.0104x    frame=  292 fps=0.8 q=43.0 size=       1kB time=00:00:04.04 bitrate=   1.5kbits/s speed=0.0105x    frame=  293 fps=0.8 q=43.0 size=       1kB time=00:00:04.06 bitrate=   1.4kbits/s speed=0.0105x    frame=  296 fps=0.8 q=43.0 size=       1kB time=00:00:04.12 bitrate=   1.4kbits/s speed=0.0105x    frame=  297 fps=0.7 q=43.0 size=       1kB time=00:00:04.14 bitrate=   1.4kbits/s speed=0.0103x    frame=  298 fps=0.7 q=43.0 size=       1kB time=00:00:04.16 bitrate=   1.4kbits/s speed=0.0104x    frame=  299 fps=0.7 q=43.0 size=       1kB time=00:00:04.18 bitrate=   1.4kbits/s speed=0.0104x    frame=  303 fps=0.7 q=43.0 size=       1kB time=00:00:04.26 bitrate=   1.4kbits/s speed=0.0104x    frame=  304 fps=0.7 q=43.0 size=       1kB time=00:00:04.28 bitrate=   1.4kbits/s speed=0.0104x    frame=  306 fps=0.7 q=43.0 size=       1kB time=00:00:04.32 bitrate=   1.4kbits/s speed=0.0104x    frame=  307 fps=0.7 q=43.0 size=       1kB time=00:00:04.34 bitrate=   1.4kbits/s speed=0.0103x    frame=  308 fps=0.7 q=43.0 size=       1kB time=00:00:04.36 bitrate=   1.4kbits/s speed=0.0103x    frame=  309 fps=0.7 q=43.0 size=       1kB time=00:00:04.38 bitrate=   1.3kbits/s speed=0.0103x    frame=  313 fps=0.7 q=42.0 size=       1kB time=00:00:04.46 bitrate=   1.3kbits/s speed=0.0103x    frame=  314 fps=0.7 q=43.0 size=       1kB time=00:00:04.48 bitrate=   1.3kbits/s speed=0.0103x    frame=  315 fps=0.7 q=43.0 size=       1kB time=00:00:04.50 bitrate=   1.3kbits/s speed=0.0103x    frame=  317 fps=0.7 q=43.0 size=       1kB time=00:00:04.54 bitrate=   1.3kbits/s speed=0.0104x    frame=  319 fps=0.7 q=43.0 size=       1kB time=00:00:04.58 bitrate=   1.3kbits/s speed=0.0102x    frame=  320 fps=0.7 q=42.0 size=       1kB time=00:00:04.60 bitrate=   1.3kbits/s speed=0.0102x    frame=  321 fps=0.7 q=42.0 size=       1kB time=00:00:04.62 bitrate=   1.3kbits/s speed=0.0102x    frame=  324 fps=0.7 q=42.0 size=       1kB time=00:00:04.68 bitrate=   1.3kbits/s speed=0.0103x    frame=  325 fps=0.7 q=42.0 size=       1kB time=00:00:04.70 bitrate=   1.3kbits/s speed=0.0102x    frame=  326 fps=0.7 q=42.0 size=       1kB time=00:00:04.72 bitrate=   1.2kbits/s speed=0.0102x    frame=  327 fps=0.7 q=42.0 size=       1kB time=00:00:04.74 bitrate=   1.2kbits/s speed=0.0102x    frame=  329 fps=0.7 q=42.0 size=       1kB time=00:00:04.78 bitrate=   1.2kbits/s speed=0.0101x    frame=  330 fps=0.7 q=42.0 size=       1kB time=00:00:04.80 bitrate=   1.2kbits/s speed=0.0102x    frame=  331 fps=0.7 q=42.0 size=       1kB time=00:00:04.82 bitrate=   1.2kbits/s speed=0.0102x    frame=  333 fps=0.7 q=43.0 size=       1kB time=00:00:04.86 bitrate=   1.2kbits/s speed=0.0102x    frame=  335 fps=0.7 q=43.0 size=       1kB time=00:00:04.90 bitrate=   1.2kbits/s speed=0.0102x    frame=  336 fps=0.7 q=43.0 size=       1kB time=00:00:04.92 bitrate=   1.2kbits/s speed=0.0102x    frame=  337 fps=0.7 q=43.0 size=    1612kB time=00:00:04.94 bitrate=2672.7kbits/s speed=0.0103x    frame=  342 fps=0.7 q=43.0 size=    1612kB time=00:00:05.04 bitrate=2619.7kbits/s speed=0.0104x    frame=  343 fps=0.7 q=43.0 size=    1612kB time=00:00:05.06 bitrate=2609.3kbits/s speed=0.0104x    frame=  348 fps=0.7 q=43.0 size=    1612kB time=00:00:05.16 bitrate=2558.8kbits/s speed=0.0106x    frame=  349 fps=0.7 q=43.0 size=    1612kB time=00:00:05.18 bitrate=2548.9kbits/s speed=0.0106x    frame=  350 fps=0.7 q=43.0 size=    1612kB time=00:00:05.20 bitrate=2539.1kbits/s speed=0.0106x    frame=  351 fps=0.7 q=43.0 size=    1612kB time=00:00:05.22 bitrate=2529.4kbits/s speed=0.0106x    frame=  354 fps=0.7 q=43.0 size=    1612kB time=00:00:05.28 bitrate=2500.6kbits/s speed=0.0107x    frame=  355 fps=0.7 q=43.0 size=    1612kB time=00:00:05.30 bitrate=2491.2kbits/s speed=0.0107x    frame=  356 fps=0.7 q=43.0 size=    1612kB time=00:00:05.32 bitrate=2481.8kbits/s speed=0.0107x    frame=  357 fps=0.7 q=43.0 size=    1612kB time=00:00:05.34 bitrate=2472.5kbits/s speed=0.0107x    frame=  359 fps=0.7 q=43.0 size=    1612kB time=00:00:05.38 bitrate=2454.2kbits/s speed=0.0108x    frame=  360 fps=0.7 q=43.0 size=    1612kB time=00:00:05.40 bitrate=2445.1kbits/s speed=0.0108x    frame=  361 fps=0.7 q=43.0 size=    1612kB time=00:00:05.42 bitrate=2436.1kbits/s speed=0.0108x    frame=  362 fps=0.7 q=43.0 size=    1612kB time=00:00:05.44 bitrate=2427.1kbits/s speed=0.0108x    frame=  363 fps=0.7 q=43.0 size=    1612kB time=00:00:05.46 bitrate=2418.2kbits/s speed=0.0108x    frame=  365 fps=0.7 q=43.0 size=    1612kB time=00:00:05.50 bitrate=2400.6kbits/s speed=0.0108x    frame=  366 fps=0.7 q=43.0 size=    1612kB time=00:00:05.52 bitrate=2391.9kbits/s speed=0.0109x    frame=  367 fps=0.7 q=43.0 size=    1612kB time=00:00:05.54 bitrate=2383.3kbits/s speed=0.0109x    frame=  368 fps=0.7 q=43.0 size=    1612kB time=00:00:05.56 bitrate=2374.7kbits/s speed=0.0109x    frame=  369 fps=0.7 q=43.0 size=    1612kB time=00:00:05.58 bitrate=2366.2kbits/s speed=0.0109x    frame=  371 fps=0.7 q=43.0 size=    1612kB time=00:00:05.62 bitrate=2349.4kbits/s speed=0.0109x    frame=  372 fps=0.7 q=43.0 size=    1612kB time=00:00:05.64 bitrate=2341.1kbits/s speed=0.0109x    frame=  373 fps=0.7 q=43.0 size=    1612kB time=00:00:05.66 bitrate=2332.8kbits/s speed=0.0109x    frame=  374 fps=0.7 q=43.0 size=    1612kB time=00:00:05.68 bitrate=2324.6kbits/s speed=0.0108x    frame=  375 fps=0.7 q=43.0 size=    1612kB time=00:00:05.70 bitrate=2316.4kbits/s speed=0.0109x    frame=  376 fps=0.7 q=43.0 size=    1612kB time=00:00:05.72 bitrate=2308.3kbits/s speed=0.0109x    frame=  380 fps=0.7 q=43.0 size=    1612kB time=00:00:05.80 bitrate=2276.5kbits/s speed=0.0109x    frame=  381 fps=0.7 q=43.0 size=    1612kB time=00:00:05.82 bitrate=2268.7kbits/s speed=0.0109x    frame=  384 fps=0.7 q=43.0 size=    1612kB time=00:00:05.88 bitrate=2245.5kbits/s speed=0.011x    frame=  386 fps=0.7 q=43.0 size=    1612kB time=00:00:05.92 bitrate=2230.3kbits/s speed=0.011x    frame=  387 fps=0.7 q=43.0 size=    1612kB time=00:00:05.94 bitrate=2222.8kbits/s speed=0.011x    frame=  388 fps=0.7 q=43.0 size=    1612kB time=00:00:05.96 bitrate=2215.4kbits/s speed=0.011x    frame=  389 fps=0.7 q=43.0 size=    1612kB time=00:00:05.98 bitrate=2208.0kbits/s speed=0.0109x    frame=  390 fps=0.7 q=43.0 size=    1612kB time=00:00:06.00 bitrate=2200.6kbits/s speed=0.011x    frame=  391 fps=0.7 q=43.0 size=    1612kB time=00:00:06.02 bitrate=2193.3kbits/s speed=0.011x    frame=  393 fps=0.7 q=43.0 size=    1612kB time=00:00:06.06 bitrate=2178.8kbits/s speed=0.011x    frame=  394 fps=0.7 q=43.0 size=    1612kB time=00:00:06.08 bitrate=2171.7kbits/s speed=0.011x    frame=  395 fps=0.7 q=43.0 size=    1612kB time=00:00:06.10 bitrate=2164.5kbits/s speed=0.011x    frame=  396 fps=0.7 q=43.0 size=    1612kB time=00:00:06.12 bitrate=2157.5kbits/s speed=0.011x    frame=  397 fps=0.7 q=43.0 size=    1612kB time=00:00:06.14 bitrate=2150.4kbits/s speed=0.011x    frame=  399 fps=0.7 q=43.0 size=    1612kB time=00:00:06.18 bitrate=2136.5kbits/s speed=0.011x    frame=  400 fps=0.7 q=43.0 size=    1612kB time=00:00:06.20 bitrate=2129.6kbits/s speed=0.011x    frame=  401 fps=0.7 q=43.0 size=    1612kB time=00:00:06.22 bitrate=2122.8kbits/s speed=0.011x    frame=  402 fps=0.7 q=43.0 size=    1612kB time=00:00:06.24 bitrate=2116.0kbits/s speed=0.011x    frame=  403 fps=0.7 q=43.0 size=    1612kB time=00:00:06.26 bitrate=2109.2kbits/s speed=0.0109x    frame=  404 fps=0.7 q=43.0 size=    1612kB time=00:00:06.28 bitrate=2102.5kbits/s speed=0.0109x    frame=  405 fps=0.7 q=43.0 size=    1612kB time=00:00:06.30 bitrate=2095.8kbits/s speed=0.011x    frame=  408 fps=0.7 q=43.0 size=    1612kB time=00:00:06.36 bitrate=2076.1kbits/s speed=0.011x    frame=  409 fps=0.7 q=43.0 size=    1612kB time=00:00:06.38 bitrate=2069.6kbits/s speed=0.0109x    frame=  410 fps=0.7 q=43.0 size=    1612kB time=00:00:06.40 bitrate=2063.1kbits/s speed=0.0109x    frame=  411 fps=0.7 q=43.0 size=    1612kB time=00:00:06.42 bitrate=2056.7kbits/s speed=0.0109x    frame=  414 fps=0.7 q=43.0 size=    1612kB time=00:00:06.48 bitrate=2037.6kbits/s speed=0.011x    frame=  415 fps=0.7 q=43.0 size=    1612kB time=00:00:06.50 bitrate=2031.4kbits/s speed=0.0109x    frame=  416 fps=0.7 q=43.0 size=    1612kB time=00:00:06.52 bitrate=2025.1kbits/s speed=0.0108x    frame=  417 fps=0.7 q=43.0 size=    1612kB time=00:00:06.54 bitrate=2018.9kbits/s speed=0.0109x    frame=  418 fps=0.7 q=43.0 size=    1612kB time=00:00:06.56 bitrate=2012.8kbits/s speed=0.0109x    frame=  422 fps=0.7 q=43.0 size=    1612kB time=00:00:06.64 bitrate=1988.5kbits/s speed=0.0108x    frame=  423 fps=0.7 q=43.0 size=    1612kB time=00:00:06.66 bitrate=1982.6kbits/s speed=0.0109x    frame=  424 fps=0.7 q=43.0 size=    1612kB time=00:00:06.68 bitrate=1976.6kbits/s speed=0.0108x    frame=  427 fps=0.7 q=43.0 size=    1612kB time=00:00:06.74 bitrate=1959.0kbits/s speed=0.0108x    frame=  428 fps=0.7 q=43.0 size=    1612kB time=00:00:06.76 bitrate=1953.2kbits/s speed=0.0108x    frame=  429 fps=0.7 q=43.0 size=    1612kB time=00:00:06.78 bitrate=1947.5kbits/s speed=0.0108x    frame=  431 fps=0.7 q=43.0 size=    1612kB time=00:00:06.82 bitrate=1936.1kbits/s speed=0.0108x    frame=  433 fps=0.7 q=43.0 size=    1612kB time=00:00:06.86 bitrate=1924.8kbits/s speed=0.0108x    frame=  434 fps=0.7 q=43.0 size=    1612kB time=00:00:06.88 bitrate=1919.2kbits/s speed=0.0108x    frame=  435 fps=0.7 q=43.0 size=    1612kB time=00:00:06.90 bitrate=1913.6kbits/s speed=0.0108x    frame=  436 fps=0.7 q=43.0 size=    1612kB time=00:00:06.92 bitrate=1908.1kbits/s speed=0.0108x    frame=  437 fps=0.7 q=43.0 size=    1612kB time=00:00:06.94 bitrate=1902.6kbits/s speed=0.0108x    frame=  438 fps=0.7 q=43.0 size=    1612kB time=00:00:06.96 bitrate=1897.1kbits/s speed=0.0107x    frame=  439 fps=0.7 q=43.0 size=    1612kB time=00:00:06.98 bitrate=1891.7kbits/s speed=0.0107x    frame=  440 fps=0.7 q=43.0 size=    1612kB time=00:00:07.00 bitrate=1886.3kbits/s speed=0.0107x    frame=  444 fps=0.7 q=43.0 size=    1612kB time=00:00:07.08 bitrate=1865.0kbits/s speed=0.0107x    frame=  445 fps=0.7 q=43.0 size=    1612kB time=00:00:07.10 bitrate=1859.7kbits/s speed=0.0107x    frame=  446 fps=0.7 q=43.0 size=    1612kB time=00:00:07.12 bitrate=1854.5kbits/s speed=0.0107x    frame=  448 fps=0.7 q=43.0 size=    1612kB time=00:00:07.16 bitrate=1844.1kbits/s speed=0.0106x    frame=  449 fps=0.7 q=43.0 size=    1612kB time=00:00:07.18 bitrate=1839.0kbits/s speed=0.0107x    frame=  450 fps=0.7 q=43.0 size=    1612kB time=00:00:07.20 bitrate=1833.9kbits/s speed=0.0107x    frame=  452 fps=0.7 q=43.0 size=    1612kB time=00:00:07.24 bitrate=1823.8kbits/s speed=0.0107x    frame=  454 fps=0.7 q=43.0 size=    1612kB time=00:00:07.28 bitrate=1813.7kbits/s speed=0.0107x    frame=  455 fps=0.7 q=43.0 size=    1612kB time=00:00:07.30 bitrate=1808.8kbits/s speed=0.0107x    frame=  456 fps=0.7 q=43.0 size=    1612kB time=00:00:07.32 bitrate=1803.8kbits/s speed=0.0107x    frame=  457 fps=0.7 q=43.0 size=    1612kB time=00:00:07.34 bitrate=1798.9kbits/s speed=0.0107x    frame=  458 fps=0.7 q=43.0 size=    1612kB time=00:00:07.36 bitrate=1794.0kbits/s speed=0.0106x    frame=  459 fps=0.7 q=43.0 size=    1612kB time=00:00:07.38 bitrate=1789.2kbits/s speed=0.0106x    frame=  460 fps=0.7 q=43.0 size=    1612kB time=00:00:07.40 bitrate=1784.3kbits/s speed=0.0106x    frame=  464 fps=0.7 q=43.0 size=    1612kB time=00:00:07.48 bitrate=1765.3kbits/s speed=0.0106x    frame=  465 fps=0.7 q=43.0 size=    1612kB time=00:00:07.50 bitrate=1760.5kbits/s speed=0.0106x    frame=  466 fps=0.7 q=43.0 size=    1612kB time=00:00:07.52 bitrate=1755.9kbits/s speed=0.0106x    frame=  467 fps=0.7 q=43.0 size=    1612kB time=00:00:07.54 bitrate=1751.2kbits/s speed=0.0106x    frame=  468 fps=0.7 q=43.0 size=    1612kB time=00:00:07.56 bitrate=1746.6kbits/s speed=0.0106x    frame=  469 fps=0.7 q=43.0 size=    1612kB time=00:00:07.58 bitrate=1742.0kbits/s speed=0.0106x    frame=  470 fps=0.7 q=43.0 size=    1612kB time=00:00:07.60 bitrate=1737.4kbits/s speed=0.0106x    frame=  474 fps=0.6 q=43.0 size=    1612kB time=00:00:07.68 bitrate=1719.3kbits/s speed=0.0105x    frame=  475 fps=0.6 q=43.0 size=    1612kB time=00:00:07.70 bitrate=1714.8kbits/s speed=0.0105x    frame=  476 fps=0.6 q=43.0 size=    1612kB time=00:00:07.72 bitrate=1710.4kbits/s speed=0.0105x    frame=  479 fps=0.7 q=43.0 size=    1612kB time=00:00:07.78 bitrate=1697.2kbits/s speed=0.0106x    frame=  480 fps=0.6 q=43.0 size=    1612kB time=00:00:07.80 bitrate=1692.8kbits/s speed=0.0105x    frame=  481 fps=0.6 q=43.0 size=    1612kB time=00:00:07.82 bitrate=1688.5kbits/s speed=0.0105x    frame=  482 fps=0.6 q=43.0 size=    1612kB time=00:00:07.84 bitrate=1684.2kbits/s speed=0.0105x    frame=  486 fps=0.6 q=43.0 size=    1612kB time=00:00:07.92 bitrate=1667.2kbits/s speed=0.0104x    frame=  487 fps=0.6 q=43.0 size=    1612kB time=00:00:07.94 bitrate=1663.0kbits/s speed=0.0104x    frame=  488 fps=0.6 q=43.0 size=    1612kB time=00:00:07.96 bitrate=1658.8kbits/s speed=0.0105x    frame=  492 fps=0.6 q=43.0 size=    1612kB time=00:00:08.04 bitrate=1642.3kbits/s speed=0.0105x    frame=  493 fps=0.6 q=43.0 size=    1612kB time=00:00:08.06 bitrate=1638.2kbits/s speed=0.0105x    frame=  494 fps=0.6 q=43.0 size=    1612kB time=00:00:08.08 bitrate=1634.2kbits/s speed=0.0105x    frame=  495 fps=0.6 q=43.0 size=    1612kB time=00:00:08.10 bitrate=1630.2kbits/s speed=0.0104x    frame=  496 fps=0.6 q=43.0 size=    1612kB time=00:00:08.12 bitrate=1626.1kbits/s speed=0.0104x    frame=  497 fps=0.6 q=43.0 size=    1612kB time=00:00:08.14 bitrate=1622.1kbits/s speed=0.0104x    frame=  498 fps=0.6 q=43.0 size=    1612kB time=00:00:08.16 bitrate=1618.2kbits/s speed=0.0104x    frame=  500 fps=0.6 q=43.0 size=    1612kB time=00:00:08.20 bitrate=1610.3kbits/s speed=0.0103x    frame=  500 fps=0.5 q=-1.0 Lsize=    3596kB time=00:00:09.94 bitrate=2963.5kbits/s speed=0.0103x    
video:3592kB audio:0kB subtitle:0kB other streams:0kB global headers:0kB muxing overhead: 0.119737%
bench: utime=3728.088s
bench: maxrss=6467560kB
[libx264 @ 0x3bad120] frame I:3     Avg QP:39.98  size:108149
[libx264 @ 0x3bad120] frame P:45    Avg QP:42.51  size: 19543
[libx264 @ 0x3bad120] frame B:452   Avg QP:42.93  size:  5472
[libx264 @ 0x3bad120] consecutive B-frames:  0.6%  0.0%  0.0%  0.0%  0.0%  0.0%  1.4%  3.2%  7.2% 30.0% 19.8%  9.6%  5.2% 14.0%  9.0%  0.0%  0.0%
[libx264 @ 0x3bad120] mb I  I16..4: 34.3% 54.7% 11.0%
[libx264 @ 0x3bad120] mb P  I16..4:  0.1%  0.9%  0.0%  P16..4: 21.8% 14.6%  2.5%  0.1%  0.0%    skip:60.0%
[libx264 @ 0x3bad120] mb B  I16..4:  0.0%  0.0%  0.0%  B16..8: 21.2%  0.7%  0.0%  direct: 0.0%  skip:78.1%  L0:47.2% L1:52.8% BI: 0.0%
[libx264 @ 0x3bad120] final ratefactor: 35.37
[libx264 @ 0x3bad120] 8x8 transform intra:59.0% inter:91.4%
[libx264 @ 0x3bad120] direct mvs  spatial:98.7% temporal:1.3%
[libx264 @ 0x3bad120] coded y,uvDC,uvAC intra: 28.3% 20.4% 2.8% inter: 0.1% 0.2% 0.0%
[libx264 @ 0x3bad120] i16 v,h,dc,p:  7% 34%  1% 58%
[libx264 @ 0x3bad120] i8 v,h,dc,ddl,ddr,vr,hd,vl,hu:  5%  1% 33% 10% 16%  8% 14%  5%  9%
[libx264 @ 0x3bad120] i4 v,h,dc,ddl,ddr,vr,hd,vl,hu: 25%  1% 23% 11% 13%  6% 10%  4%  8%
[libx264 @ 0x3bad120] i8c dc,h,v,p: 19% 66%  8%  8%
[libx264 @ 0x3bad120] Weighted P-Frames: Y:4.4% UV:2.2%
[libx264 @ 0x3bad120] ref P L0: 68.9% 18.3%  7.9%  1.4%  0.8%  0.8%  0.5%  0.2%  0.2%  0.2%  0.1%  0.2%  0.1%  0.1%  0.1%  0.0%
[libx264 @ 0x3bad120] ref B L0: 97.5%  1.6%  0.6%  0.1%  0.1%  0.0%  0.0%  0.0%  0.0%  0.0%  0.0%  0.0%  0.0%  0.0%  0.0%
[libx264 @ 0x3bad120] ref B L1: 98.5%  1.5%
[libx264 @ 0x3bad120] kb/s:2941.90
